# xmcd
#
# Track frame offsets: 
#        150
#        13846
#        28262
#        41256
#        54803
#        69505
#        82055
#        96040
#        108402
#        120534
#        134790
#        147543
#        159582
#        172734
#        186496
#        198643
#        209011
#        221665
#        233527
#        247095
#        260214
#        270991
#        285536
#        297018
#        310215
#        322756
#        334734
#
# Disc length: 4623 seconds
#
# Revision: 0
# Processed by: cddbd v1.5.2PL0 Copyright (c) Steve Scherf et al.
# Submitted via: ExactAudioCopyFreeDBPlugin 1.0
#
DISCID=9b120d1b
DTITLE=B.B. King - Three O'Clock Blues CD1 (Compilation Blues Characte
DTITLE=rs)
DYEAR=1900
DGENRE=Blues
TTITLE0=Three o'clock blues
TTITLE1=She don't move me no more
TTITLE2=Someday somewhere
TTITLE3=Woke up this morning
TTITLE4=Don't have to cry
TTITLE5=Highway bound
TTITLE6=Blind love
TTITLE7=Please hurry home
TTITLE8=The woman I love
TTITLE9=Whole lot of love
TTITLE10=Everyday
TTITLE11=Don't you want a man like me
TTITLE12=When my heart beats like a hammer
TTITLE13=You upset me baby
TTITLE14=Shut your mouth
TTITLE15=Talkin' the blues
TTITLE16=Ten long years
TTITLE17=Ruby Lee
TTITLE18=Cryin won't help you
TTITLE19=Bad luck
TTITLE20=Let's do the boogie
TTITLE21=Sweet little angel
TTITLE22=Quit my baby
TTITLE23=I need you so bad
TTITLE24=Why does everything happen to me
TTITLE25=You know I go for you
TTITLE26=You've been an angel
EXTD=
EXTT0=
EXTT1=
EXTT2=
EXTT3=
EXTT4=
EXTT5=
EXTT6=
EXTT7=
EXTT8=
EXTT9=
EXTT10=
EXTT11=
EXTT12=
EXTT13=
EXTT14=
EXTT15=
EXTT16=
EXTT17=
EXTT18=
EXTT19=
EXTT20=
EXTT21=
EXTT22=
EXTT23=
EXTT24=
EXTT25=
EXTT26=
PLAYORDER=
